<svg width="600" height="600" viewBox="0 0 600 600" fill="none" xmlns="http://www.w3.org/2000/svg">
<path d="M300 0C134.315 0 0 134.315 0 300V500C0 555.23 44.7717 600 100 600H146.066C171.317 600 194.401 585.733 205.694 563.147L211.521 551.493C201.044 544.18 190.892 535.697 181.403 526.14C144.778 489.26 116.667 435.153 116.667 366.667C116.667 342.167 120.803 317.787 128.295 294.753C131.619 284.533 140.861 283.333 150 283.333C206.354 283.333 256.18 255.38 286.373 212.507C289.493 208.074 294.577 205.436 300 205.436C305.42 205.436 310.503 208.074 313.627 212.507C343.817 255.38 393.643 283.333 450 283.333C459.14 283.333 468.383 284.533 471.707 294.753C479.197 317.79 483.333 342.167 483.333 366.667C483.333 435.153 455.223 489.26 418.597 526.14C409.107 535.697 398.957 544.18 388.48 551.493L394.307 563.147C405.6 585.733 428.683 600 453.933 600H500C555.23 600 600 555.23 600 500V300C600 134.315 465.687 0 300 0Z" fill="currentColor"/>
</svg>
